<svg width="16" height="15" viewBox="0 0 16 15" fill="none" xmlns="http://www.w3.org/2000/svg">
<g clip-path="url(#clip0_11531_6976)">
<path d="M15.3 5.78699L11.8 5.98699L8.6 1.08699C8.5 0.886987 8.2 0.786987 8 0.786987C7.8 0.786987 7.5 0.886987 7.4 1.08699L4.2 5.98699H0.7C0.3 5.98699 0 6.28699 0 6.68699C0 6.78699 0 6.78699 0 6.88699L1.9 13.687C2.1 14.387 2.6 14.787 3.3 14.787H12.7C13.4 14.787 13.9 14.387 14.1 13.687L16 6.78699C16 6.68699 16 6.68699 16 6.58699C16 6.18699 15.7 5.78699 15.3 5.78699ZM8 2.68699L10.2 5.88699H5.9L8 2.68699Z" fill="black"/>
</g>
<defs>
<clipPath id="clip0_11531_6976">
<rect width="16" height="14" fill="white" transform="translate(0 0.786987)"/>
</clipPath>
</defs>
</svg>
